# xmcd
#
# Track frame offsets: 
#        182
#        11227
#        18765
#        29815
#        39540
#        50647
#        59927
#        73515
#        84902
#        99690
#
# Disc length: 1477 seconds
#
# Revision: 4
# Processed by: cddbd v1.5.2PL0 Copyright (c) Steve Scherf et al.
# Submitted via: ExactAudioCopy v0.95a5
#
DISCID=8a05c30a
DTITLE=Chet Atkins - The Guitar Genius
DYEAR=1996
DGENRE=Instrumental
TTITLE0=Heartbreak Hotel
TTITLE1=Swannee River
TTITLE2=Blackjack
TTITLE3=Apple Blossom Wind
TTITLE4=Daar's 'N Wind Wat Waai
TTITLE5=It's Now Or Never
TTITLE6=Out Of Nowhere
TTITLE7=Hidden Charm
TTITLE8=Even Tho'
TTITLE9=When Day Is Done
EXTD=
EXTT0=
EXTT1=
EXTT2=
EXTT3=
EXTT4=
EXTT5=
EXTT6=
EXTT7=
EXTT8=
EXTT9=
PLAYORDER=
